<svg id="Gear_Logo" data-name="Gear Logo" xmlns="http://www.w3.org/2000/svg" xmlns:xlink="http://www.w3.org/1999/xlink" viewBox="0 0 1080 1080"><defs><style>.cls-1{fill:#fff;}.cls-2{fill:url(#linear-gradient);}</style><linearGradient id="linear-gradient" x1="673.06" y1="836.42" x2="674.36" y2="836.42" gradientUnits="userSpaceOnUse"><stop offset="0" stop-color="#59cde9"/><stop offset="0.34" stop-color="#4099ca"/><stop offset="1" stop-color="#0a2a88"/></linearGradient></defs><path class="cls-1" d="M801.85,488.9c-2.87-55-22.46-101.71-58.41-139.14-85.81-89.39-233.86-93-240.1-93.16H351.24l1-.68H263.35v-1.35l-58.16-28.76a459,459,0,0,0-46.06,57.63l42.64,52.28a391.73,391.73,0,0,0-32.4,67.19l-67.5-.71a457,457,0,0,0-16.33,71.9l61.13,28.63Q145,521.15,144.93,540t1.74,37.27L85.54,605.9a456.26,456.26,0,0,0,16.33,71.9l67.5-.71a390.67,390.67,0,0,0,32.4,67.19l-42.64,52.31a460.89,460.89,0,0,0,46.06,57.6l60.47-29.92a396.11,396.11,0,0,0,58.24,46.51l-15.73,65.63a458.33,458.33,0,0,0,66.43,32.06l41.51-53.23a390.41,390.41,0,0,0,72.72,16.56l14.3,65.9q18.24,1.47,36.87,1.48t36.87-1.48l14.33-65.9a391,391,0,0,0,72.72-16.56l41.51,53.23a458,458,0,0,0,66.4-32.06L756.1,870.83H620.91A341.46,341.46,0,0,1,540,880.5c-188,0-340.47-152.45-340.47-340.5A339.41,339.41,0,0,1,299.74,298.74h203c5.14.14,137.57,4.45,210.28,80.2,28,29.13,43.59,65.69,46.54,108.91a51.36,51.36,0,1,0,42.3,1Zm-22.31,71.27a25,25,0,1,1,25-25A25.06,25.06,0,0,1,779.54,560.17Z"/><path class="cls-1" d="M300.85,570.68a4.86,4.86,0,0,1-.66,0c-.68,0-1.37,0-2-.08Z"/><path class="cls-1" d="M935.1,540q0-18.84-1.77-37.27l61.13-28.63a457,457,0,0,0-16.33-71.9l-67.47.71a396.23,396.23,0,0,0-32.4-67.19l42.61-52.28a458.78,458.78,0,0,0-46-57.63l-60.48,29.92a394.9,394.9,0,0,0-58.26-46.48l15.73-65.66a454.75,454.75,0,0,0-66.4-32l-41.51,53.2a391.73,391.73,0,0,0-72.72-16.54L576.87,82.3Q558.66,80.83,540,80.82T503.13,82.3l-14.3,65.92a391.18,391.18,0,0,0-72.72,16.54l-41.51-53.2a455.09,455.09,0,0,0-66.43,32l15.73,65.66c-.06,0-.11.08-.16.1H458.46A341.32,341.32,0,0,1,540,199.53c188,0,340.5,152.42,340.5,340.47A339.43,339.43,0,0,1,780.1,781.44H580.9c-5.26-.13-138-4.74-210.44-80.3C342.33,671.8,326.71,634.87,324,591.2a51.37,51.37,0,1,0-42.06,2.45c3.29,53.94,22.83,99.9,58.28,136.8,85.81,89.37,233.83,93,240.1,93.13H728.53c-.34.24-.69.45-1,.69h86.86l60.48,29.92a460.65,460.65,0,0,0,46-57.6l-42.61-52.31a395.13,395.13,0,0,0,32.4-67.19l67.47.71a456.26,456.26,0,0,0,16.33-71.9l-61.13-28.63Q935.07,558.85,935.1,540Zm-634,30.68h-.26a4.86,4.86,0,0,1-.66,0c-.68,0-1.37,0-2-.08H298a.21.21,0,0,1-.13,0,25.12,25.12,0,1,1,3.26.08Z"/><path class="cls-1" d="M463.94,550v123.5h53.15V603.16Zm146-45.32-1.24,1.24v89.41L488.13,474.77H463.94v51.17L611.82,673.82h50v-221Z"/><polygon class="cls-1" points="578.1 406.18 578.1 459.33 475.69 459.33 454.97 459.33 349.77 459.33 349.77 406.18 578.1 406.18"/><path class="cls-2" d="M674.36,836.42a1.62,1.62,0,0,1-.31,0c-.34,0-.67,0-1,0Z"/></svg>